<svg id="visual" viewBox="0 0 900 600" width="900" height="600" xmlns="http://www.w3.org/2000/svg" xmlns:xlink="http://www.w3.org/1999/xlink" version="1.1"><rect x="0" y="0" width="900" height="600" fill="#344955"></rect><path d="M0 478L18.8 471.5C37.7 465 75.3 452 112.8 437.2C150.3 422.3 187.7 405.7 225.2 395.2C262.7 384.7 300.3 380.3 337.8 389C375.3 397.7 412.7 419.3 450.2 438.3C487.7 457.3 525.3 473.7 562.8 481C600.3 488.3 637.7 486.7 675.2 480.7C712.7 474.7 750.3 464.3 787.8 459.8C825.3 455.3 862.7 456.7 881.3 457.3L900 458" fill="none" stroke-linecap="round" stroke-linejoin="miter" stroke="#E3FEF7" stroke-width="40"></path></svg>